<svg width="206" height="37" viewBox="0 0 206 37" fill="none" xmlns="http://www.w3.org/2000/svg">
<path d="M95.9503 12.7347H82.8833H79.1114L82.3804 3.60129H69.3135L66.0445 12.7347L64.7512 16.336L58.9048 32.6629H71.9807L77.8272 16.336H81.5901L75.7437 32.6629H88.8196L94.6571 16.336H94.6661L95.9503 12.7347Z" fill="black"/>
<path d="M152.125 16.336H154.936H155.313L156.597 12.7347H156.229H153.418H147.024H133.957L132.663 16.336L126.817 32.6629H139.893L145.739 16.336H152.125Z" fill="black"/>
<path d="M18.9134 7.20256L15.6444 16.336H27.2745L25.9902 19.9372H14.3512L13.067 23.5385L11.0822 29.0617H26.5919L25.2987 32.6629H3.26899L1.97576 29.0617L0 23.5385V23.5295L1.28424 19.9283L2.57747 16.336L5.84646 7.20256L7.1307 3.60129H31.8277L30.5435 7.20256H18.9134Z" fill="black"/>
<path d="M124.895 16.336L123.602 12.7347H99.8119L98.5186 16.336L97.2254 19.9372L95.9412 23.5385L95.995 23.6912L97.9259 29.0706L99.2101 32.6719H122.892L124.177 29.0706L126.808 21.7154L124.886 16.336H124.895ZM114.388 19.9283L111.119 29.0617H107.032L109.017 23.5295L110.301 19.9283L111.595 16.327H115.681L114.388 19.9283Z" fill="black"/>
<path d="M43.422 29.0617H39.6501L41.6348 23.5385L42.9191 19.9372L44.2123 16.336H61.0602L62.3534 12.7347H45.4966L47.4813 7.20256L48.7655 3.60129H35.6986L34.4053 7.20256L31.1453 16.336L29.8521 19.9372L28.5679 23.5295V23.5385L31.8369 32.6629H35.6177H38.3659H42.1378H44.1315H55.2047L58.4737 23.5385H45.4067L43.422 29.0617Z" fill="black"/>
<path d="M173.921 14.2075L169.395 19.0661L156.705 32.6719H147.643L164.859 14.2075L154.972 3.60129H164.033L169.395 9.35794L173.921 14.2075Z" fill="black"/>
<path d="M206 0L184.823 22.7033L197.477 36.2642H181.429L176.795 31.2979L168.757 22.7033L176.795 14.0997L189.942 0H206Z" fill="black"/>
</svg>
